<svg width="14" height="23" viewBox="0 0 14 23" fill="none" xmlns="http://www.w3.org/2000/svg">
<path d="M6.3022 22.1818V0.363635H7.69993V22.1818H6.3022ZM11.0067 6.90909C10.9045 6.04545 10.4897 5.375 9.76243 4.89773C9.03516 4.42045 8.14311 4.18182 7.08629 4.18182C6.31357 4.18182 5.63743 4.30682 5.05788 4.55682C4.48402 4.80682 4.03516 5.15057 3.71129 5.58807C3.39311 6.02557 3.23402 6.52273 3.23402 7.07954C3.23402 7.54545 3.34482 7.94602 3.56641 8.28125C3.79368 8.6108 4.08345 8.88636 4.43572 9.10795C4.788 9.32386 5.15732 9.50284 5.54368 9.64489C5.93004 9.78125 6.28516 9.89205 6.60902 9.97727L8.38175 10.4545C8.83629 10.5739 9.34197 10.7386 9.89879 10.9489C10.4613 11.1591 10.9982 11.446 11.5096 11.8097C12.0266 12.1676 12.4528 12.6278 12.788 13.1903C13.1232 13.7528 13.2908 14.4432 13.2908 15.2614C13.2908 16.2045 13.0437 17.0568 12.5494 17.8182C12.0607 18.5795 11.3448 19.1847 10.4016 19.6335C9.46413 20.0824 8.32493 20.3068 6.98402 20.3068C5.73402 20.3068 4.65163 20.1051 3.73686 19.7017C2.82777 19.2983 2.11186 18.7358 1.58913 18.0142C1.07209 17.2926 0.779474 16.4545 0.711293 15.5H2.89311C2.94993 16.1591 3.17152 16.7045 3.55788 17.1364C3.94993 17.5625 4.44425 17.8807 5.04084 18.0909C5.64311 18.2955 6.29084 18.3977 6.98402 18.3977C7.79084 18.3977 8.51527 18.267 9.15732 18.0057C9.79936 17.7386 10.3079 17.3693 10.6829 16.8977C11.0579 16.4205 11.2454 15.8636 11.2454 15.2273C11.2454 14.6477 11.0835 14.1761 10.7596 13.8125C10.4357 13.4489 10.0096 13.1534 9.48118 12.9261C8.95277 12.6989 8.38175 12.5 7.76811 12.3295L5.62038 11.7159C4.25675 11.3239 3.1772 10.7642 2.38175 10.0369C1.58629 9.30966 1.18857 8.35795 1.18857 7.18182C1.18857 6.20454 1.45277 5.35227 1.98118 4.625C2.51527 3.89205 3.23118 3.32386 4.12891 2.92045C5.03232 2.51136 6.04084 2.30682 7.15447 2.30682C8.27947 2.30682 9.27947 2.50852 10.1545 2.91193C11.0295 3.30966 11.7227 3.85511 12.234 4.54829C12.7511 5.24148 13.0238 6.02841 13.0522 6.90909H11.0067Z" fill="#1D2F3C"/>
</svg>
