<?xml version="1.0" encoding="UTF-8"?>
<svg xmlns="http://www.w3.org/2000/svg" xmlns:xlink="http://www.w3.org/1999/xlink" width="35px" height="35px" viewBox="0 0 35 35" version="1.1">
<g id="surface1">
<path style=" stroke:none;fill-rule:nonzero;fill:rgb(32.54902%,53.333333%,68.235294%);fill-opacity:1;" d="M 17.5 32.8125 C 13.4375 32.8125 9.542969 31.199219 6.671875 28.328125 C 3.800781 25.457031 2.1875 21.5625 2.1875 17.5 C 2.1875 13.4375 3.800781 9.542969 6.671875 6.671875 C 9.542969 3.800781 13.4375 2.1875 17.5 2.1875 C 21.5625 2.1875 25.457031 3.800781 28.328125 6.671875 C 31.199219 9.542969 32.8125 13.4375 32.8125 17.5 C 32.8125 21.5625 31.199219 25.457031 28.328125 28.328125 C 25.457031 31.199219 21.5625 32.8125 17.5 32.8125 Z M 17.5 35 C 22.140625 35 26.59375 33.15625 29.875 29.875 C 33.15625 26.59375 35 22.140625 35 17.5 C 35 12.859375 33.15625 8.40625 29.875 5.125 C 26.59375 1.84375 22.140625 0 17.5 0 C 12.859375 0 8.40625 1.84375 5.125 5.125 C 1.84375 8.40625 0 12.859375 0 17.5 C 0 22.140625 1.84375 26.59375 5.125 29.875 C 8.40625 33.15625 12.859375 35 17.5 35 Z M 17.5 35 "/>
<path style=" stroke:none;fill-rule:nonzero;fill:rgb(32.54902%,53.333333%,68.235294%);fill-opacity:1;" d="M 24.75 21.90625 C 24.960938 21.855469 25.175781 21.871094 25.378906 21.941406 C 25.578125 22.015625 25.753906 22.144531 25.878906 22.316406 C 26.007812 22.488281 26.082031 22.691406 26.09375 22.90625 C 26.105469 23.117188 26.058594 23.332031 25.949219 23.515625 C 25.085938 25.011719 23.84375 26.253906 22.347656 27.121094 C 20.851562 27.984375 19.152344 28.4375 17.421875 28.4375 C 15.695312 28.4375 13.996094 27.984375 12.5 27.121094 C 11.003906 26.253906 9.761719 25.011719 8.898438 23.515625 C 8.789062 23.332031 8.742188 23.117188 8.753906 22.90625 C 8.765625 22.691406 8.839844 22.488281 8.96875 22.316406 C 9.09375 22.144531 9.269531 22.015625 9.46875 21.941406 C 9.671875 21.871094 9.886719 21.855469 10.09375 21.90625 L 10.105469 21.90625 L 10.144531 21.917969 L 10.289062 21.949219 L 10.839844 22.070312 C 11.3125 22.171875 11.96875 22.304688 12.714844 22.4375 C 14.230469 22.710938 16.046875 22.96875 17.421875 22.96875 C 18.800781 22.96875 20.617188 22.710938 22.132812 22.4375 C 22.941406 22.292969 23.75 22.128906 24.558594 21.949219 L 24.703125 21.917969 L 24.742188 21.90625 L 24.75 21.902344 Z M 10.402344 9.988281 C 12.074219 6.875 19.199219 9.726562 12.484375 17.5 C 2.652344 14.007812 7.34375 8.097656 10.402344 9.988281 Z M 24.597656 9.988281 C 27.65625 8.097656 32.347656 14.007812 22.515625 17.5 C 15.804688 9.726562 22.929688 6.875 24.597656 9.988281 Z M 24.597656 9.988281 "/>
</g>
</svg>
