<svg width="55" height="55" viewBox="0 0 55 55" fill="none" xmlns="http://www.w3.org/2000/svg">
<g clip-path="url(#clip0_18_69)">
<path d="M27.5 51.5625C21.1182 51.5625 14.9978 49.0274 10.4852 44.5148C5.97265 40.0022 3.4375 33.8818 3.4375 27.5C3.4375 21.1182 5.97265 14.9978 10.4852 10.4852C14.9978 5.97265 21.1182 3.4375 27.5 3.4375C33.8818 3.4375 40.0022 5.97265 44.5148 10.4852C49.0274 14.9978 51.5625 21.1182 51.5625 27.5C51.5625 33.8818 49.0274 40.0022 44.5148 44.5148C40.0022 49.0274 33.8818 51.5625 27.5 51.5625ZM27.5 55C34.7935 55 41.7882 52.1027 46.9454 46.9454C52.1027 41.7882 55 34.7935 55 27.5C55 20.2065 52.1027 13.2118 46.9454 8.05456C41.7882 2.89731 34.7935 0 27.5 0C20.2065 0 13.2118 2.89731 8.05456 8.05456C2.89731 13.2118 0 20.2065 0 27.5C0 34.7935 2.89731 41.7882 8.05456 46.9454C13.2118 52.1027 20.2065 55 27.5 55Z" fill="#5388AE"/>
<path d="M38.8954 34.4231C39.2217 34.3463 39.5633 34.3666 39.8782 34.4815C40.1932 34.5963 40.4676 34.8008 40.6678 35.0697C40.868 35.3386 40.9852 35.6601 41.005 35.9948C41.0248 36.3294 40.9463 36.6625 40.7791 36.9531C39.4217 39.3056 37.4686 41.259 35.1164 42.6168C32.7641 43.9745 30.0957 44.6887 27.3797 44.6875C24.6637 44.6887 21.9953 43.9745 19.6431 42.6168C17.2908 41.259 15.3377 39.3056 13.9804 36.9531C13.8132 36.6625 13.7347 36.3294 13.7544 35.9948C13.7742 35.6601 13.8914 35.3386 14.0916 35.0697C14.2918 34.8008 14.5663 34.5963 14.8812 34.4815C15.1961 34.3666 15.5378 34.3463 15.8641 34.4231H15.8813L15.9397 34.4403L16.17 34.4919L17.0363 34.6809C17.7754 34.8391 18.8066 35.0522 19.9822 35.2619C22.3644 35.6881 25.2141 36.0938 27.3797 36.0938C29.5454 36.0938 32.3985 35.6881 34.7772 35.2619C36.0533 35.0323 37.3243 34.7756 38.5894 34.4919L38.8197 34.4403L38.8782 34.4266L38.8954 34.4197V34.4231ZM16.3488 15.6956C18.9716 10.8006 30.1675 15.2831 19.6213 27.5C4.16629 22.0138 11.5432 12.7256 16.3488 15.6956ZM38.6513 15.6956C43.4569 12.7256 50.8338 22.0138 35.3788 27.5C24.836 15.2831 36.0319 10.8006 38.6513 15.6956Z" fill="#5388AE"/>
</g>
<defs>
<clipPath id="clip0_18_69">
<rect width="55" height="55" fill="white"/>
</clipPath>
</defs>
</svg>
