<svg width="20" height="20" viewBox="0 0 20 20" fill="none" xmlns="http://www.w3.org/2000/svg">
<g clip-path="url(#clip0_174_70)">
<path d="M10 5.9425C9.46717 5.9425 8.93955 6.04745 8.44727 6.25136C7.95499 6.45526 7.50769 6.75414 7.13092 7.13091C6.75415 7.50769 6.45527 7.95498 6.25136 8.44726C6.04746 8.93954 5.9425 9.46716 5.9425 10C5.9425 10.5328 6.04746 11.0605 6.25136 11.5527C6.45527 12.045 6.75415 12.4923 7.13092 12.8691C7.50769 13.2459 7.95499 13.5447 8.44727 13.7486C8.93955 13.9525 9.46717 14.0575 10 14.0575C11.0761 14.0575 12.1082 13.63 12.8691 12.8691C13.63 12.1082 14.0575 11.0761 14.0575 10C14.0575 8.92388 13.63 7.89184 12.8691 7.13091C12.1082 6.36998 11.0761 5.9425 10 5.9425ZM7.19251 10C7.19251 9.2554 7.48829 8.5413 8.0148 8.01479C8.54131 7.48829 9.25541 7.1925 10 7.1925C10.7446 7.1925 11.4587 7.48829 11.9852 8.01479C12.5117 8.5413 12.8075 9.2554 12.8075 10C12.8075 10.7446 12.5117 11.4587 11.9852 11.9852C11.4587 12.5117 10.7446 12.8075 10 12.8075C9.25541 12.8075 8.54131 12.5117 8.0148 11.9852C7.48829 11.4587 7.19251 10.7446 7.19251 10Z" fill="#1D2F3C"/>
<path d="M12.2452 1.67889C11.5865 -0.558612 8.41398 -0.558612 7.75523 1.67889L7.63773 2.07764C7.59173 2.23383 7.51135 2.37774 7.4025 2.49884C7.29365 2.61993 7.15908 2.71513 7.00866 2.77745C6.85823 2.83978 6.69577 2.86766 6.53317 2.85904C6.37058 2.85042 6.21197 2.80552 6.06898 2.72764L5.70398 2.52764C3.65398 1.41264 1.41273 3.65514 2.52898 5.70389L2.72773 6.06889C2.80561 6.21188 2.85051 6.37049 2.85913 6.53308C2.86775 6.69568 2.83987 6.85814 2.77754 7.00856C2.71522 7.15899 2.62002 7.29356 2.49893 7.40241C2.37784 7.51126 2.23392 7.59163 2.07773 7.63764L1.67898 7.75514C-0.558521 8.41389 -0.558521 11.5864 1.67898 12.2451L2.07773 12.3626C2.23392 12.4086 2.37784 12.489 2.49893 12.5979C2.62002 12.7067 2.71522 12.8413 2.77754 12.9917C2.83987 13.1421 2.86775 13.3046 2.85913 13.4672C2.85051 13.6298 2.80561 13.7884 2.72773 13.9314L2.52773 14.2964C1.41273 16.3464 3.65398 18.5889 5.70398 17.4714L6.06898 17.2726C6.21197 17.1948 6.37058 17.1499 6.53317 17.1412C6.69577 17.1326 6.85823 17.1605 7.00866 17.2228C7.15908 17.2852 7.29365 17.3804 7.4025 17.5014C7.51135 17.6225 7.59173 17.7665 7.63773 17.9226L7.75523 18.3214C8.41398 20.5589 11.5865 20.5589 12.2452 18.3214L12.3627 17.9226C12.4087 17.7665 12.4891 17.6225 12.598 17.5014C12.7068 17.3804 12.8414 17.2852 12.9918 17.2228C13.1422 17.1605 13.3047 17.1326 13.4673 17.1412C13.6299 17.1499 13.7885 17.1948 13.9315 17.2726L14.2965 17.4726C16.3465 18.5889 18.589 16.3451 17.4715 14.2964L17.2727 13.9314C17.1948 13.7884 17.15 13.6298 17.1413 13.4672C17.1327 13.3046 17.1606 13.1421 17.2229 12.9917C17.2852 12.8413 17.3804 12.7067 17.5015 12.5979C17.6226 12.489 17.7665 12.4086 17.9227 12.3626L18.3215 12.2451C20.559 11.5864 20.559 8.41389 18.3215 7.75514L17.9227 7.63764C17.7665 7.59163 17.6226 7.51126 17.5015 7.40241C17.3804 7.29356 17.2852 7.15899 17.2229 7.00856C17.1606 6.85814 17.1327 6.69568 17.1413 6.53308C17.15 6.37049 17.1948 6.21188 17.2727 6.06889L17.4727 5.70389C18.589 3.65389 16.3452 1.41264 14.2965 2.52889L13.9315 2.72764C13.7885 2.80552 13.6299 2.85042 13.4673 2.85904C13.3047 2.86766 13.1422 2.83978 12.9918 2.77745C12.8414 2.71513 12.7068 2.61993 12.598 2.49884C12.4891 2.37774 12.4087 2.23383 12.3627 2.07764L12.2452 1.67889ZM8.95398 2.03264C9.26148 0.988888 10.739 0.988888 11.0465 2.03264L11.164 2.43139C11.2628 2.76649 11.4353 3.07525 11.6689 3.33501C11.9025 3.59478 12.1913 3.79897 12.5141 3.93261C12.8369 4.06626 13.1855 4.12597 13.5343 4.10738C13.8832 4.08878 14.2235 3.99234 14.5302 3.82514L14.894 3.62514C15.849 3.10639 16.894 4.15014 16.374 5.10639L16.1752 5.47139C16.0083 5.77817 15.9121 6.11842 15.8937 6.46721C15.8753 6.81599 15.9352 7.16448 16.0689 7.48712C16.2027 7.80976 16.4069 8.09839 16.6667 8.33186C16.9265 8.56532 17.2352 8.73771 17.5702 8.83639L17.9677 8.95389C19.0115 9.26139 19.0115 10.7389 17.9677 11.0464L17.569 11.1639C17.2339 11.2627 16.9251 11.4352 16.6654 11.6688C16.4056 11.9024 16.2014 12.1912 16.0678 12.514C15.9341 12.8368 15.8744 13.1854 15.893 13.5342C15.9116 13.8831 16.008 14.2234 16.1752 14.5301L16.3752 14.8939C16.894 15.8489 15.8502 16.8939 14.894 16.3739L14.5302 16.1751C14.2234 16.008 13.883 15.9116 13.5341 15.893C13.1852 15.8745 12.8365 15.9343 12.5137 16.0681C12.1909 16.2019 11.9021 16.4062 11.6686 16.6661C11.435 16.926 11.2626 17.2349 11.164 17.5701L11.0465 17.9676C10.739 19.0114 9.26148 19.0114 8.95398 17.9676L8.83648 17.5689C8.73766 17.234 8.56517 16.9254 8.33164 16.6657C8.09812 16.4061 7.80947 16.202 7.48684 16.0684C7.16422 15.9347 6.81578 15.875 6.46707 15.8934C6.11835 15.9119 5.77818 16.0082 5.47148 16.1751L5.10648 16.3751C4.15148 16.8939 3.10648 15.8501 3.62648 14.8939L3.82523 14.5301C3.99267 14.2233 4.08929 13.8829 4.10801 13.5339C4.12673 13.1849 4.06707 12.8361 3.93341 12.5132C3.79975 12.1902 3.59547 11.9013 3.33558 11.6676C3.07568 11.4339 2.76676 11.2614 2.43148 11.1626L2.03273 11.0451C0.98898 10.7376 0.98898 9.26014 2.03273 8.95264L2.43148 8.83514C2.76624 8.73628 3.07465 8.56381 3.33416 8.33037C3.59366 8.09693 3.79768 7.80842 3.9313 7.48596C4.06491 7.16349 4.12473 6.81523 4.10638 6.46666C4.08802 6.11809 3.99196 5.77804 3.82523 5.47139L3.62523 5.10639C3.10648 4.15139 4.15023 3.10639 5.10648 3.62639L5.47148 3.82514C5.77818 3.99211 6.11835 4.08836 6.46707 4.10683C6.81578 4.1253 7.16422 4.06554 7.48684 3.93191C7.80947 3.79828 8.09812 3.59417 8.33164 3.33454C8.56517 3.07491 8.73766 2.76632 8.83648 2.43139L8.95398 2.03264Z" fill="#1D2F3C"/>
</g>
<defs>
<clipPath id="clip0_174_70">
<rect width="20" height="20" fill="white"/>
</clipPath>
</defs>
</svg>
