<svg width="22" height="22" viewBox="0 0 22 22" fill="none" xmlns="http://www.w3.org/2000/svg">
<path d="M11 11C12.4587 11 13.8576 10.4205 14.8891 9.38909C15.9205 8.35764 16.5 6.95869 16.5 5.5C16.5 4.04131 15.9205 2.64236 14.8891 1.61091C13.8576 0.579463 12.4587 0 11 0C9.54131 0 8.14236 0.579463 7.11091 1.61091C6.07946 2.64236 5.5 4.04131 5.5 5.5C5.5 6.95869 6.07946 8.35764 7.11091 9.38909C8.14236 10.4205 9.54131 11 11 11ZM14.6667 5.5C14.6667 6.47246 14.2804 7.40509 13.5927 8.09272C12.9051 8.78036 11.9725 9.16667 11 9.16667C10.0275 9.16667 9.09491 8.78036 8.40728 8.09272C7.71964 7.40509 7.33333 6.47246 7.33333 5.5C7.33333 4.52754 7.71964 3.59491 8.40728 2.90727C9.09491 2.21964 10.0275 1.83333 11 1.83333C11.9725 1.83333 12.9051 2.21964 13.5927 2.90727C14.2804 3.59491 14.6667 4.52754 14.6667 5.5ZM22 20.1667C22 22 20.1667 22 20.1667 22H1.83333C1.83333 22 0 22 0 20.1667C0 18.3333 1.83333 12.8333 11 12.8333C20.1667 12.8333 22 18.3333 22 20.1667ZM20.1667 20.1593C20.1648 19.7083 19.8843 18.3517 18.6413 17.1087C17.446 15.9133 15.1965 14.6667 11 14.6667C6.80167 14.6667 4.554 15.9133 3.35867 17.1087C2.11567 18.3517 1.837 19.7083 1.83333 20.1593H20.1667Z" fill="#1D2F3B"/>
</svg>
